<svg width="100" height="37" viewBox="0 0 100 37" fill="none" xmlns="http://www.w3.org/2000/svg">
<path d="M96.4297 6.92871V22.0171H99.4782V6.92871H96.4297Z" fill="#2E0F42"/>
<circle cx="97.9588" cy="2.11896" r="2.04084" fill="#2E0F42"/>
<path d="M87.3711 0V22.1091H90.4017V0H87.3711Z" fill="#2E0F42"/>
<path d="M75.9267 21.7655C78.7799 21.7655 81.1278 20.4281 82.4058 17.9315L80.147 16.7724C79.2851 18.3773 77.6802 19.1501 75.8969 19.1501C73.2815 19.1501 71.3794 17.3965 71.0524 14.9H82.703V13.7111C82.703 9.63937 79.9687 6.45923 75.57 6.45923C71.201 6.45923 68.1992 9.87714 68.1992 14.0678C68.1992 18.5557 71.4982 21.7655 75.9267 21.7655ZM71.1713 12.9978C71.4685 10.8282 73.0735 9.10439 75.5403 9.10439C77.9477 9.10439 79.6418 10.6796 79.7607 12.9978H71.1713Z" fill="#2E0F42"/>
<path d="M36.7475 21.8268C39.1298 21.8268 41.0654 20.6952 42.1672 18.9085V21.4694H44.9664V14.1439C44.9664 9.79617 41.6014 6.52051 37.1941 6.52051C32.7571 6.52051 29.4219 9.97485 29.4219 14.1439C29.4219 18.3725 32.5189 21.8268 36.7475 21.8268ZM37.1941 19.0276C34.4843 19.0276 32.37 16.824 32.37 14.1736C32.37 11.4936 34.4843 9.28993 37.1941 9.28993C39.9338 9.28993 42.0183 11.4936 42.0183 14.1736C42.0183 16.824 39.9338 19.0276 37.1941 19.0276Z" fill="#9D19F1"/>
<circle cx="37.1815" cy="14.1939" r="2.04084" fill="#9D19F1"/>
<circle cx="18.367" cy="14.1939" r="2.04084" fill="#2E0F42"/>
<path fill-rule="evenodd" clip-rule="evenodd" d="M56.7061 9.41712C59.6942 9.41712 61.2187 11.8259 61.2187 14.631V21.8268H64.2373V14.2651C64.2373 9.93546 61.5846 6.52051 56.7061 6.52051C51.8886 6.52051 49.3201 9.91894 49.3201 14.2791V21.8268L49.3203 21.8268C49.3116 23.3781 48.9931 24.9132 48.3993 26.3469C47.7972 27.8004 46.9147 29.1212 45.8022 30.2337C44.6897 31.3462 43.3689 32.2287 41.9154 32.8308C40.4618 33.4329 38.9039 33.7428 37.3305 33.7428C35.7572 33.7428 34.1993 33.4329 32.7457 32.8308C31.2921 32.2287 29.9714 31.3462 28.8589 30.2337C27.7464 29.1212 26.8639 27.8004 26.2618 26.3469C25.6597 24.8933 25.3406 23.3354 25.3406 21.762H25.3404V14.0035C25.3404 9.87325 22.9594 6.54123 18.4647 6.54123C15.6404 6.54123 13.5449 8.05971 12.7249 10.3678C11.9656 8.05971 9.80939 6.54123 6.83316 6.54123C2.36883 6.54123 0 9.88189 0 14.0425V21.8475H3.00659V14.4981C3.00659 11.7952 4.25175 9.42634 7.04575 9.42634C9.80939 9.42634 11.176 11.7041 11.176 14.4373V21.8475H14.1826V14.4373C14.1826 11.7041 15.5492 9.42634 18.2521 9.42634C21.0461 9.42634 22.2792 11.2364 22.2792 14.4495V21.8475H22.2796C22.2907 23.795 22.6796 25.7221 23.4251 27.5219C24.1814 29.348 25.2901 31.0072 26.6877 32.4048C28.0854 33.8024 29.7446 34.9111 31.5707 35.6675C33.3968 36.4239 35.354 36.8132 37.3305 36.8132C39.3071 36.8132 41.2643 36.4239 43.0904 35.6675C44.9165 34.9111 46.5757 33.8024 47.9733 32.4048C49.371 31.0072 50.4796 29.348 51.236 27.5219C51.9924 25.6958 52.3817 23.7386 52.3817 21.762H52.3814V14.6192C52.3814 11.8446 53.779 9.41712 56.7061 9.41712Z" fill="#2E0F42"/>
</svg>

